<?xml version="1.0" encoding="UTF-8"?>
<svg version="1.1" xmlns="http://www.w3.org/2000/svg" width="57" height="54">
<path d="M0 0 C18.81 0 37.62 0 57 0 C57 17.82 57 35.64 57 54 C38.19 54 19.38 54 0 54 C0 36.18 0 18.36 0 0 Z " fill="#FCFDFD" transform="translate(0,0)"/>
<path d="M0 0 C1.29344529 2.21943454 2.41751618 4.36890475 3.5 6.6875 C3.79519531 7.30044922 4.09039062 7.91339844 4.39453125 8.54492188 C4.98339862 9.76805389 5.56550111 10.99446699 6.140625 12.22412109 C6.95944631 13.91619671 7.8685161 15.5637099 8.78125 17.20703125 C10 20 10 20 9.83105469 22.02929688 C8.70912913 24.6897502 7.51926838 25.12726709 4.921875 26.32421875 C4.09042969 26.71287109 3.25898437 27.10152344 2.40234375 27.50195312 C1.52707031 27.89318359 0.65179687 28.28441406 -0.25 28.6875 C-1.10980469 29.09033203 -1.96960938 29.49316406 -2.85546875 29.90820312 C-6.91677422 31.77615333 -10.57282838 33.2401488 -15 34 C-17.02203325 30.34505329 -19.01610128 26.67577496 -21 23 C-21.51046875 22.07058594 -22.0209375 21.14117187 -22.546875 20.18359375 C-23.00578125 19.31863281 -23.4646875 18.45367188 -23.9375 17.5625 C-24.35902344 16.78003906 -24.78054687 15.99757813 -25.21484375 15.19140625 C-26.160959 12.55075623 -26.03894028 11.5811908 -25 9 C-23.18994141 7.7355957 -23.18994141 7.7355957 -20.8515625 6.67578125 C-20.01109375 6.28712891 -19.170625 5.89847656 -18.3046875 5.49804688 C-17.42039062 5.10681641 -16.53609375 4.71558594 -15.625 4.3125 C-14.7484375 3.90966797 -13.871875 3.50683594 -12.96875 3.09179688 C-3.58012917 -1.19337639 -3.58012917 -1.19337639 0 0 Z " fill="#066185" transform="translate(29,11)"/>
<path d="M0 0 C2.42656504 1.58348695 3.14411223 2.90744685 4.38525391 5.51000977 C4.78292969 6.34274414 5.18060547 7.17547852 5.59033203 8.03344727 C5.99058594 8.90485352 6.39083984 9.77625977 6.80322266 10.67407227 C7.2228125 11.53774414 7.64240234 12.40141602 8.07470703 13.29125977 C11.0265262 19.59366115 11.0265262 19.59366115 10.88330078 22.41552734 C9.61568018 25.09049807 8.09030685 25.65016695 5.43994141 26.91235352 C4.51375 27.35514648 3.58755859 27.79793945 2.63330078 28.25415039 C1.17053711 28.92607422 1.17053711 28.92607422 -0.32177734 29.61157227 C-1.28535156 30.07885742 -2.24892578 30.54614258 -3.24169922 31.02758789 C-10.42031904 34.39551971 -10.42031904 34.39551971 -13.31860352 33.92089844 C-13.87652588 33.7156958 -14.43444824 33.51049316 -15.00927734 33.29907227 C-15.33927734 31.64907227 -15.66927734 29.99907227 -16.00927734 28.29907227 C-12.70927734 26.64907227 -9.40927734 24.99907227 -6.00927734 23.29907227 C-7.1076824 17.80704696 -9.18976133 13.91946822 -11.82958984 9.04125977 C-13.00927734 6.29907227 -13.00927734 6.29907227 -12.00927734 3.29907227 C-9.86474609 2.06079102 -9.86474609 2.06079102 -7.19677734 0.98657227 C-6.32408203 0.61918945 -5.45138672 0.25180664 -4.55224609 -0.12670898 C-2.00927734 -0.70092773 -2.00927734 -0.70092773 0 0 Z " fill="#AFBF4B" transform="translate(44.00927734375,10.700927734375)"/>
<path d="M0 0 C2.39768937 2.97958475 4.05083109 5.95597919 5.625 9.4375 C6.05039062 10.36433594 6.47578125 11.29117187 6.9140625 12.24609375 C7.93826451 14.84344057 8.55100383 17.25114566 9 20 C7.59248779 20.86916887 6.1735479 21.71985149 4.75 22.5625 C3.96109375 23.03816406 3.1721875 23.51382813 2.359375 24.00390625 C0 25 0 25 -2.1328125 24.953125 C-4.81597379 23.58347781 -5.39364887 21.90044459 -6.625 19.1875 C-7.02976562 18.31480469 -7.43453125 17.44210938 -7.8515625 16.54296875 C-8.23054688 15.70378906 -8.60953125 14.86460938 -9 14 C-9.39960938 13.31550781 -9.79921875 12.63101562 -10.2109375 11.92578125 C-11 10 -11 10 -10.87109375 7.890625 C-9.71736878 5.38657619 -8.54531062 4.88140737 -6.0625 3.75 C-5.35222656 3.41484375 -4.64195313 3.0796875 -3.91015625 2.734375 C-2 2 -2 2 0 2 C0 1.34 0 0.68 0 0 Z " fill="#049EDD" transform="translate(30,14)"/>
</svg>